<?xml version="1.0" encoding="utf-8"?>
<!-- Generator: Adobe Illustrator 16.0.0, SVG Export Plug-In . SVG Version: 6.00 Build 0)  -->
<!DOCTYPE svg PUBLIC "-//W3C//DTD SVG 1.1//EN" "http://www.w3.org/Graphics/SVG/1.1/DTD/svg11.dtd">
<svg version="1.1" id="Layer_1" xmlns="http://www.w3.org/2000/svg" xmlns:xlink="http://www.w3.org/1999/xlink" x="0px" y="0px"
	viewBox="2299.784 3886.945 832.33 976.579"
	 enable-background="new 2299.784 3886.945 832.33 976.579" xml:space="preserve">
<g>
	<path fill="#F7D80E" d="M2868.612,3904.82L2868.612,3904.82l-225.691-15.533c-85.202,0.247-172.216,55.927-237.734,147.344
		c-67.073,93.485-103.197,214.435-103.197,340.548c0,125.853,37.292,246.541,104.752,340.547
		c65.649,91.418,152.016,142.947,236.44,142.947l211.575-12.684c94.783,0,275.156-147.617,275.156-470.551
		C3129.913,4055.027,2955.625,3904.82,2868.612,3904.82"/>
	<path fill="#764016" d="M2738.222,4114.063h-136.089c-3.496-0.26-6.735,3.109-6.735,6.739v509.904c0,3.891,3.239,7.26,6.735,7.26
		l136.089-0.26c3.883,0,6.992-3.109,6.992-7v-509.904C2745.214,4117.173,2742.104,4114.063,2738.222,4114.063 M2719.059,4601.189
		c0,3.889-2.979,5.957-5.181,5.957h-44.281c-2.075,0-5.441-1.561-5.441-5.957v-446.979c0-3.89,2.463-6.479,4.921-6.479h44.545
		c3.235,0,5.438,2.849,5.438,6.479V4601.189z M2824.201,4109.146c-49.209-73.035-114.467-114.47-183.352-114.47
		c-63.32,0-126.768,42.476-173.9,114.731c-47.26,72.515-72.898,167.027-72.898,265.965c0,98.923,26.155,193.451,73.936,266.21
		c47.134,71.994,110.063,112.402,172.863,112.402c68.885,0,133.629-39.105,182.57-112.141
		c48.171-71.994,74.844-166.521,74.844-266.472C2898.264,4275.407,2872.368,4181.14,2824.201,4109.146 M2650.561,4717.467
		c-69.532,0-202.904-113.168-202.904-342.095c0-193.711,109.806-348.314,202.904-348.314c124.432,0,219.732,157.974,219.732,348.314
		C2870.293,4565.973,2774.992,4717.467,2650.561,4717.467 M2869.52,3902.492L2869.52,3902.492l-226.858-15.547
		c-85.72,0.26-173.12,55.94-239.029,147.878c-67.2,94.267-103.848,215.462-103.848,342.356
		c0,126.373,37.422,247.828,105.402,342.355c66.036,91.938,152.793,143.469,237.475,143.988l212.743-13.203
		c95.17,0,276.71-148.4,276.71-472.881C3132.114,4053.726,2956.793,3902.492,2869.52,3902.492 M2643.312,4828.568
		c-145.804,0-308.435-192.424-308.435-451.389c0-119.648,34.833-234.105,97.76-322.413
		c59.173-82.61,135.571-131.044,210.024-131.305h3.756c77.819,1.822,158.23,46.873,220.253,130.003
		c66.427,88.568,103.327,203.546,103.327,323.714c0,120.676-36.641,235.926-101.902,323.713
		c-62.022,83.898-143.858,127.414-224.526,127.676H2643.312z M2853.593,4815.609c-2.202,0-79.374,6.74-84.295,6.74
		c45.578-24.602,88.051-58.791,121.586-104.883c68.107-94.266,106.824-213.654,106.824-340.287
		c0-126.114-38.456-246.542-108.248-340.548c-39.754-53.338-80.281-85.979-132.979-111.868l94.394,7.246
		c72.381,0,243.819,145.29,243.819,445.43C3094.693,4662.307,2920.796,4815.609,2853.593,4815.609"/>
</g>
</svg>
